<svg xmlns="http://www.w3.org/2000/svg" viewBox="0 0 64 64" role="img" aria-label="Brin Shadewater">
  <defs>
    <linearGradient id="bg" x1="0%" y1="0%" x2="100%" y2="100%">
      <stop offset="0%" stop-color="#0d2430" />
      <stop offset="100%" stop-color="#183744" />
    </linearGradient>
    <linearGradient id="accent" x1="0%" y1="0%" x2="100%" y2="100%">
      <stop offset="0%" stop-color="#6fc7d0" />
      <stop offset="100%" stop-color="#d0b690" />
    </linearGradient>
  </defs>
  <rect width="64" height="64" rx="16" fill="url(#bg)" />
  <path d="M18 14h15.5c8.6 0 14.5 4.7 14.5 12.2 0 5.3-2.9 8.8-7.7 10.5 5.9 1.4 9.7 5.4 9.7 11.7C50 57.1 42.5 62 31.9 62H18V14zm12.6 19.3c5.3 0 8.5-2 8.5-5.9 0-3.7-2.8-5.6-8-5.6h-4.7v11.5h4.2zm1.2 20.9c5.7 0 9-2.1 9-6.3 0-4-3.1-6.1-8.9-6.1h-5.5v12.4h5.4z" fill="url(#accent)" />
  <circle cx="50" cy="15" r="3" fill="#d0b690" />
</svg>
